HIERARCHY
ROOT root
{
	OFFSET	0	13.1	24.9
	CHANNELS 6  Xposition Yposition Zposition Xrotation Yrotation Zrotation
	JOINT spine_1
	{
		OFFSET	0	9.99999	0
		CHANNELS 3  Xrotation Yrotation Zrotation
		JOINT spine_2
		{
			OFFSET	0	112	-10
			CHANNELS 3  Xrotation Yrotation Zrotation
			JOINT spine_3
			{
				OFFSET	0	206.5	19.3
				CHANNELS 3  Xrotation Yrotation Zrotation
				JOINT spine_4
				{
					OFFSET	0	110.4	14.6
					CHANNELS 3  Xrotation Yrotation Zrotation
					JOINT neck_1
					{
						OFFSET	0	71.8	-50.3
						CHANNELS 3  Xrotation Yrotation Zrotation
						JOINT neck_2
						{
							OFFSET	0	86.2	-25.8
							CHANNELS 3  Xrotation Yrotation Zrotation
							JOINT head_ee
							{
								OFFSET	0	179.8	-8.7
								CHANNELS 3  Xrotation Yrotation Zrotation
								End Site
								{
									OFFSET	1	0	0
								}
							}
						}
					}
					JOINT left_clavicle
					{
						OFFSET	-43.2	22.4	-70.8
						CHANNELS 3  Xrotation Yrotation Zrotation
						JOINT left_shoulder
						{
							OFFSET	-93.9	-5.79999	48.7
							CHANNELS 3  Xrotation Yrotation Zrotation
							JOINT left_elbow
							{
								OFFSET	-291.4	-30.8	15.2
								CHANNELS 3  Xrotation Yrotation Zrotation
								JOINT left_lowarm_twist
								{
									OFFSET	-110.7	-3.89999	13.6
									CHANNELS 3  Xrotation Yrotation Zrotation
									JOINT left_hand
									{
										OFFSET	-110.7	-3.89999	13.6
										CHANNELS 3  Xrotation Yrotation Zrotation
										JOINT left_ee
										{
											OFFSET	-80.8	-5.10001	12.1
											CHANNELS 3  Xrotation Yrotation Zrotation
											End Site
											{
												OFFSET	1	0	0
											}
										}
									}
								}
							}
						}
					}
					JOINT right_clavicle
					{
						OFFSET	43.2	22.4	-70.8
						CHANNELS 3  Xrotation Yrotation Zrotation
						JOINT right_shoulder
						{
							OFFSET	93.9	-5.79999	48.7
							CHANNELS 3  Xrotation Yrotation Zrotation
							JOINT right_elbow
							{
								OFFSET	291.4	-30.8	15.2
								CHANNELS 3  Xrotation Yrotation Zrotation
								JOINT right_lowarm_twist
								{
									OFFSET	110.7	-3.89999	13.6
									CHANNELS 3  Xrotation Yrotation Zrotation
									JOINT right_hand
									{
										OFFSET	110.7	-3.89999	13.6
										CHANNELS 3  Xrotation Yrotation Zrotation
										JOINT right_ee
										{
											OFFSET	80.8	-5.10001	12.1
											CHANNELS 3  Xrotation Yrotation Zrotation
											End Site
											{
												OFFSET	1	0	0
											}
										}
									}
								}
							}
						}
					}
				}
			}
		}
	}
	JOINT left_hip
	{
		OFFSET	-82.8	-127.5	0.300001
		CHANNELS 3  Xrotation Yrotation Zrotation
		JOINT left_knee
		{
			OFFSET	-28.2	-396.7	2.2
			CHANNELS 3  Xrotation Yrotation Zrotation
			JOINT left_ankle
			{
				OFFSET	-11.7	-411.3	35.4
				CHANNELS 3  Xrotation Yrotation Zrotation
				JOINT left_toes
				{
					OFFSET	0	-60	-88.6
					CHANNELS 3  Xrotation Yrotation Zrotation
					JOINT left_foot_ee
					{
						OFFSET	-22.5	-16.5	-42.2
						CHANNELS 3  Xrotation Yrotation Zrotation
						End Site
						{
							OFFSET	1	0	0
						}
					}
				}
			}
		}
	}
	JOINT right_hip
	{
		OFFSET	82.8	-127.5	0.300001
		CHANNELS 3  Xrotation Yrotation Zrotation
		JOINT right_knee
		{
			OFFSET	28.2	-396.7	2.2
			CHANNELS 3  Xrotation Yrotation Zrotation
			JOINT right_ankle
			{
				OFFSET	11.7	-411.3	35.4
				CHANNELS 3  Xrotation Yrotation Zrotation
				JOINT right_toes
				{
					OFFSET	0	-60	-88.6
					CHANNELS 3  Xrotation Yrotation Zrotation
					JOINT right_foot_ee
					{
						OFFSET	22.5	-16.5	-42.2
						CHANNELS 3  Xrotation Yrotation Zrotation
						End Site
						{
							OFFSET	1	0	0
						}
					}
				}
			}
		}
	}
}
MOTION
Frames: 12
Frame Time: 0.02
2196.87 683.495 -1262.92 -31.6337 67.913 30.2702 4.27312 0.521537 0.525718 4.27314 0.487028 0.557839 4.27787 0.406248 0.619146 4.27768 0.49893 0.547219 -22.7559 11.723 0.940497 -23.6686 22.1739 6.56623 -0.0 0.0 -0.0 -0.75429 23.6447 1.70666 -34.3175 -9.75718 71.9613 0.489854 -13.6399 0.0585851 -34.5045 -2.38658 3.63869 1.48929 8.00948 13.0988 -0.0 0.0 -0.0 12.7049 22.7101 -25.3389 9.62549 20.433 -58.3784 1.98306 44.4849 -0.811051 78.2596 3.63939 8.50863 2.10156 -4.59015 -15.9676 0.0 0.0 0.0 40.9621 11.767 -8.96118 1.36175 -0.058466 -0.200779 0.903128 -16.6584 -0.14555 4.37869 -0.0 -0.0 -0.0 0.0 -0.0 -1.87798 1.43151 3.40342 -13.509 -0.316487 -2.04419 38.5844 23.8197 5.40303 -13.5039 0.0 0.0 0.0 0.0 0.0 
2174.69 683.261 -1255.55 -33.1948 68.096 32.3281 4.22907 0.418957 0.349478 4.22905 0.39587 0.375429 4.23166 0.340515 0.426274 4.23163 0.403563 0.367147 -16.6302 11.7791 1.66327 -17.1393 21.6709 5.92493 -0.0 0.0 -0.0 -0.538135 24.3163 2.08482 -34.077 -9.67716 71.9589 0.47896 -13.3476 0.056043 -35.5531 -2.49113 3.72333 1.82119 7.76294 15.2342 -0.0 0.0 -0.0 12.8785 22.5659 -25.7543 9.7725 18.175 -57.0855 2.04973 45.4318 -0.858163 77.5807 3.56256 8.46756 2.29184 -4.51713 -17.2513 0.0 0.0 0.0 41.9043 12.5298 -8.53255 -2.25045 0.0860963 0.334614 1.34762 -13.5789 -0.211904 7.24683 -0.0 -0.0 -0.0 0.0 -0.0 -1.90501 1.20983 3.57231 -14.1559 -0.31947 -2.1434 38.2243 23.0635 5.33025 -12.4723 0.0 0.0 0.0 0.0 0.0 
2158.55 678.337 -1251.65 -34.9336 67.5842 33.9718 4.4492 0.369148 0.261386 4.44917 0.351767 0.284346 4.45094 0.310607 0.32881 4.45097 0.358638 0.275629 -12.9328 11.559 2.07629 -13.2055 20.6954 5.4873 -0.0 0.0 -0.0 -0.351252 24.7494 2.38707 -34.484 -10.4924 71.3563 0.50265 -13.9824 0.0616395 -35.982 -2.53434 3.75741 2.15331 7.44325 17.374 -0.0 0.0 -0.0 13.1349 23.2218 -26.2884 10.4931 17.1976 -57.0521 2.06896 45.6991 -0.871895 77.121 3.5108 8.43922 2.05428 -4.74853 -15.703 0.0 0.0 0.0 42.9207 11.7663 -8.86746 -4.74127 0.165969 0.708508 1.11208 -11.474 -0.172547 9.5853 -0.0 -0.0 -0.0 0.0 -0.0 -2.71205 2.52074 4.20227 -13.3847 -0.315785 -2.02513 38.5724 22.1911 5.32117 -8.98696 0.0 0.0 0.0 0.0 0.0 
2139.39 675.735 -1247.53 -36.2903 67.5107 35.3038 4.27252 0.34449 0.428743 4.27257 0.31651 0.449795 4.27502 0.252056 0.488837 4.27484 0.326095 0.442896 -10.6127 11.4311 3.27117 -10.7357 19.4152 6.16662 -0.0 0.0 -0.0 -0.0572004 24.7865 2.78208 -34.4 -11.0193 70.3999 0.553533 -15.334 0.0745165 -36.223 -2.55873 3.77641 2.38199 7.22545 18.8678 -0.0 0.0 -0.0 13.0553 23.8526 -26.0407 10.4272 16.2969 -56.7724 2.22033 47.717 -0.982093 76.454 3.43612 8.39738 1.78429 -6.66514 -14.5812 0.0 0.0 0.0 43.8571 12.0217 -8.1879 -6.32149 0.20818 0.947337 -1.25312 -9.05679 0.192863 11.2441 -0.0 -0.0 -0.0 0.0 -0.0 -3.35955 3.44479 5.04465 -12.7462 -0.311531 -1.92725 38.28 22.8602 5.32559 -6.32757 0.0 0.0 0.0 0.0 0.0 
2120.1 673.901 -1244.83 -38.3034 67.3533 37.417 4.39016 0.170503 0.247036 4.39018 0.154438 0.257385 4.39086 0.118359 0.275843 4.39079 0.160438 0.253688 -9.98358 11.168 3.66778 -10.0629 18.5668 6.37528 -0.0 0.0 -0.0 0.129502 24.9823 3.0505 -34.0741 -11.2741 70.2768 0.60001 -16.5535 0.0872843 -36.3913 -2.57581 3.78962 2.5942 7.02215 20.2693 -0.0 0.0 -0.0 12.9888 23.957 -25.8757 10.3603 15.734 -57.2253 2.20246 47.4866 -0.968894 76.5356 3.44522 8.40254 1.6666 -6.16295 -13.5995 0.0 0.0 0.0 44.3898 12.721 -7.95866 -7.42505 0.233742 1.11476 -1.89078 -7.3413 0.288848 12.1797 -0.0 -0.0 -0.0 0.0 -0.0 -3.26425 4.11193 5.41563 -12.4245 -0.308975 -1.87797 38.0904 22.8944 5.30902 -4.45135 0.0 0.0 0.0 0.0 0.0 
2103.24 676.647 -1246.13 -40.8707 68.0728 39.5429 4.3768 0.137309 0.417926 4.37689 0.110437 0.425816 4.37765 0.0519702 0.436823 4.3774 0.120306 0.423134 -8.9065 11.5075 5.00636 -8.91353 18.1256 7.59183 -0.0 0.0 -0.0 0.44246 24.4208 3.41133 -32.9555 -12.1646 68.0517 0.673254 -18.4441 0.109311 -35.4994 -2.48573 3.71905 2.68698 6.02634 20.5614 -0.0 0.0 -0.0 12.6851 24.7258 -25.093 8.88876 15.0887 -57.8262 2.22983 47.8386 -0.989123 74.8574 3.25936 8.29372 1.65392 -7.33422 -13.9507 0.0 0.0 0.0 44.2398 13.5983 -6.77316 -8.97201 0.264135 1.35019 -0.0696995 -1.70719 0.0103631 12.5777 -0.0 -0.0 -0.0 0.0 -0.0 -2.78849 4.74148 5.14835 -13.5222 -0.316559 -2.04622 38.208 19.8961 5.18413 -1.99541 0.0 0.0 0.0 0.0 0.0 
2080.72 682.831 -1241.47 -42.3125 67.6621 40.5795 4.34108 0.0925117 0.548113 4.34124 0.057447 0.552888 4.34168 -0.0180325 0.555572 4.34126 0.0699347 0.551448 -6.83837 11.8548 5.30302 -6.77249 18.197 7.6688 -0.0 0.0 -0.0 0.606514 24.0448 3.59719 -32.4075 -12.0996 67.3173 0.727761 -19.8248 0.127179 -36.0323 -2.53942 3.76138 2.78467 6.0569 21.2607 -0.0 0.0 -0.0 12.75 24.1621 -25.3019 7.93834 13.9751 -58.0371 2.25377 48.1428 -1.00691 75.3789 3.31677 8.32811 1.49589 -7.77189 -13.0548 0.0 0.0 0.0 44.4285 13.8206 -6.78382 -10.3423 0.285738 1.55933 -0.346737 -2.44181 0.0517116 13.5451 -0.0 -0.0 -0.0 0.0 -0.0 -2.65618 5.00005 6.11453 -13.1765 -0.314519 -1.99322 37.0169 22.7734 5.1981 -1.24351 0.0 0.0 0.0 0.0 0.0 
2065.98 684.474 -1242.05 -43.0645 68.4902 41.4572 4.30381 0.0626849 0.614935 4.30402 0.0234288 0.617677 4.30413 -0.0609248 0.615112 4.3036 0.0369833 0.617014 -6.65588 11.5993 6.05038 -6.56356 17.1417 8.33585 -0.0 0.0 -0.0 0.698064 23.7529 3.69522 -30.7853 -13.1309 66.1578 0.784712 -21.2422 0.147156 -36.3262 -2.56919 3.78451 2.78021 6.54011 21.4028 -0.0 0.0 -0.0 12.62 24.2441 -24.9933 6.51587 13.2283 -58.4302 2.20185 47.4786 -0.968441 75.7265 3.35522 8.35075 1.2906 -8.85707 -12.094 0.0 0.0 0.0 43.4688 14.3841 -6.13532 -10.7402 0.291074 1.62016 0.422744 -0.910697 -0.0626271 13.8955 -0.0 -0.0 -0.0 0.0 -0.0 -1.67282 5.3438 6.37324 -16.389 -0.321156 -2.48599 38.1533 21.0753 5.22998 -0.066576 0.0 0.0 0.0 0.0 0.0 
2045.78 685.76 -1240.13 -44.591 69.1819 42.9927 4.34006 0.0494083 0.636378 4.34029 0.00881465 0.638232 4.34023 -0.0778045 0.633534 4.33967 0.0232247 0.63787 -7.78034 10.8604 5.87358 -7.71966 16.1023 8.1436 -0.0 0.0 -0.0 0.680407 24.1778 3.70884 -29.0222 -13.3493 65.6658 0.836259 -22.502 0.16636 -36.576 -2.5946 3.80406 2.5687 6.78185 20.0054 -0.0 0.0 -0.0 12.4264 24.2281 -24.5489 5.09084 12.5018 -58.8613 2.12002 46.3968 -0.908659 74.7453 3.24706 8.28625 1.09243 -9.96817 -11.2032 0.0 0.0 0.0 42.4006 14.7865 -5.62746 -12.1539 0.306611 1.83652 0.961393 -0.421643 -0.142035 14.156 -0.0 -0.0 -0.0 0.0 -0.0 -1.36952 5.45466 6.82812 -19.416 -0.30213 -2.94999 38.3224 19.4852 5.17785 1.1709 -0.0 -0.0 0.0 0.0 0.0 
2025.16 688.446 -1238.56 -44.6007 69.7151 43.0684 4.38945 -0.011444 0.664241 4.38969 -0.0536872 0.662166 4.38891 -0.142427 0.648893 4.38832 -0.0381617 0.663242 -6.85648 11.296 6.8127 -6.74374 16.0609 9.05502 -0.0 0.0 -0.0 1.07685 23.3337 4.17829 -26.9274 -14.8081 64.5341 0.901763 -24.0704 0.192258 -36.5807 -2.59508 3.80443 2.71554 6.8969 21.0747 -0.0 0.0 -0.0 12.3083 24.1192 -24.2884 2.38275 11.4213 -59.8457 2.11555 46.3363 -0.905418 75.7446 3.35722 8.35193 0.975128 -11.019 -10.8286 0.0 0.0 0.0 41.1031 15.1584 -5.17845 -12.9777 0.3132 1.96274 1.17826 1.18322 -0.173293 14.4682 -0.0 -0.0 -0.0 0.0 -0.0 -1.11106 5.51698 7.40195 -21.2988 -0.277941 -3.23786 38.1868 18.2709 5.11688 1.2086 -0.0 -0.0 0.0 0.0 0.0 
2001.53 696.113 -1237.59 -44.1607 70.8272 42.3755 4.23528 -0.0960316 0.726717 4.23557 -0.142079 0.719134 4.2336 -0.239575 0.692781 4.23295 -0.12716 0.721921 -8.27905 11.3968 7.51845 -8.17091 16.0408 9.931 -0.0 0.0 -0.0 1.35181 23.4473 4.56408 -23.23 -17.9045 63.4777 0.878153 -23.5093 0.182734 -37.653 -2.70509 3.88706 2.25019 10.6068 19.1436 -0.0 0.0 -0.0 12.092 22.3685 -23.9572 -0.102663 10.9257 -61.0331 2.12165 46.4188 -0.909839 75.0867 3.28456 8.30891 0.857316 -11.9714 -10.4196 0.0 0.0 0.0 38.7022 15.629 -4.13898 -16.1312 0.321643 2.44644 6.38209 0.239824 -0.926626 14.8963 -0.0 -0.0 -0.0 0.0 -0.0 0.264167 5.98247 8.20036 -28.0073 -0.115217 -4.25392 37.8592 16.1936 5.01104 1.711 -0.0 -0.0 0.0 0.0 0.0 
1984.77 700.454 -1236.61 -43.4352 71.5529 41.4741 4.02029 -0.0726282 0.764618 4.02061 -0.121134 0.758448 4.01881 -0.226985 0.733755 4.01808 -0.108257 0.760392 -9.13955 10.9501 7.7978 -9.03258 15.186 10.1986 -0.0 0.0 -0.0 1.55828 23.7457 4.86624 -20.3776 -18.7303 63.2817 0.860999 -23.0987 0.175948 -37.5782 -2.69737 3.88136 2.26371 10.3565 19.1505 -0.0 0.0 -0.0 12.1031 22.832 -23.941 -1.88781 9.34922 -61.4121 1.99135 44.6044 -0.816872 74.5754 3.22845 8.2749 0.726946 -12.6635 -9.83922 0.0 0.0 0.0 36.3142 15.7422 -3.59636 -16.6321 0.320533 2.52329 6.22437 1.24526 -0.902131 14.7665 -0.0 -0.0 -0.0 0.0 -0.0 1.92107 6.05854 8.45694 -32.6859 0.0681483 -4.9483 38.5854 14.6826 5.02878 1.8846 -0.0 -0.0 0.0 0.0 0.0 
